<svg xmlns="http://www.w3.org/2000/svg" viewBox="0 0 512 512" style="height: 512px; width: 512px;"><defs><clipPath id="icon-bg"><circle cx="256" cy="256" r="256" fill="#000" fill-opacity="1" transform="translate(563.2, -51.2) scale(-1.2, 1.2) rotate(0, 256, 256) skewX(0) skewY(0)"></circle></clipPath></defs><circle cx="256" cy="256" r="256" fill="#000" fill-opacity="1"></circle><g class="" transform="translate(3,6)" style=""><path d="M184 43.5v18h144l-.1-18zm24 95.9l-144 .1v18l144-.1zm96.1 0v18l143.9.1v-18.1zm168.4 98.1l-435.63.1L128 372.5l10.9-32 21.1 80 32-52.5 48 128 80-107.5 32 16z" fill="#fff" fill-opacity="1" clip-path="url(#icon-bg)" transform="translate(460.8, 51.2) scale(-0.8, 0.8) rotate(0, 256, 256) skewX(0) skewY(0)"></path></g></svg>